<svg id="ARTWORK" xmlns="http://www.w3.org/2000/svg" viewBox="1768.7 6764.3 1269 448"><style>.st0{opacity:0.54;enable-background:new ;} .st1{fill:#FF5722;} .st2{fill:none;} .st3{enable-background:new ;} .st4{fill:#757575;}</style><path class="st0" d="M2058.2 6971.3c-18.7 0-33.9 14.3-33.8 33.9 0 19.5 15.3 33.8 34 33.7 18.7 0 33.9-14.4 33.8-33.9-.1-19.6-15.3-33.8-34-33.7zm.1 54.2c-10.2 0-19.1-8.4-19.1-20.5 0-12.2 8.8-20.5 19.1-20.5s19.1 8.3 19.1 20.5c0 12-8.8 20.4-19.1 20.5zm-74.1-54.1c-18.7 0-33.9 14.3-33.8 33.9 0 19.5 15.3 33.8 34 33.7 18.7 0 33.9-14.4 33.8-33.9-.1-19.6-15.3-33.8-34-33.7zm.1 54.2c-10.2 0-19.1-8.4-19.1-20.5 0-12.2 8.8-20.5 19.1-20.5s19.1 8.3 19.1 20.5c0 12-8.8 20.5-19.1 20.5zm-88.1-43.8v14.3l34.3-.1c-1 8.1-3.7 13.9-7.8 18.1-5 5-12.8 10.5-26.5 10.5-21.1 0-37.6-16.9-37.7-38 0-21.1 16.4-38.1 37.5-38.2 11.4 0 19.7 4.5 25.9 10.2l10.1-10.1c-8.6-8.2-20-14.5-36-14.4-28.9 0-53.2 23.7-53.1 52.6s24.4 52.5 53.3 52.4c15.6 0 27.4-5.1 36.6-14.8 9.5-9.5 12.4-22.8 12.3-33.5 0-3.3-.3-6.4-.8-9l-48.2.1.1-.1zm360 10.6c-2.8-7.6-11.4-21.5-28.9-21.5-17.4 0-31.9 13.8-31.8 33.9 0 18.9 14.4 33.8 33.6 33.7 15.5 0 24.5-9.5 28.2-15l-11.5-7.7c-3.8 5.6-9.1 9.3-16.6 9.3-7.5 0-12.9-3.5-16.4-10.2l45.2-18.8-1.8-3.7zm-46.1 11.3c-.4-13.1 10.1-19.7 17.7-19.7 5.9 0 10.9 2.9 12.5 7.2l-30.2 12.5zm-36.6 32.9h14.8l-.2-99.3h-14.8l.2 99.3zm-24.4-58h-.5c-3.3-4-9.7-7.6-17.8-7.6-16.9 0-32.4 15-32.3 34 0 18.9 15.6 33.7 32.5 33.6 8.1 0 14.5-3.6 17.8-7.7h.5v4.9c0 12.9-6.9 19.8-18 19.8-9.1 0-14.7-6.5-17-12l-12.9 5.4c3.7 9 13.6 20 30 19.9 17.4 0 32.1-10.3 32-35.3l-.1-60.7h-14.2v5.7zm-17 46.7c-10.2 0-18.8-8.6-18.8-20.4 0-11.9 8.6-20.6 18.8-20.6 10.1 0 18 8.7 18 20.6.1 11.9-7.9 20.4-18 20.4zm193.6-88.3l-35.5.1.2 99.3h14.8l-.1-37.6h20.7c16.4 0 32.6-12 32.5-31-.1-19-16.2-30.8-32.6-30.8zm.4 47.8H2305l-.1-34.1h21.1c11.1 0 17.4 9.2 17.4 17 .1 7.8-6.2 17.1-17.3 17.1zm91.7-14.4c-10.7 0-21.8 4.7-26.4 15.2l13.2 5.5c2.8-5.5 8.1-7.3 13.6-7.3 7.7 0 15.5 4.6 15.6 12.8v1c-2.7-1.5-8.4-3.8-15.5-3.8-14.2 0-28.6 7.8-28.6 22.4 0 13.3 11.6 21.8 24.7 21.8 10 0 15.5-4.5 18.9-9.7h.5v7.7h14.3l-.1-38.1c-.1-17.7-13.2-27.5-30.2-27.5zm-1.7 54.4c-4.9 0-11.6-2.4-11.6-8.4 0-7.7 8.4-10.6 15.7-10.6 6.5 0 9.6 1.4 13.6 3.3-1.2 9.2-9.2 15.7-17.7 15.7zm84-52.4l-16.9 43.1h-.5l-17.7-43.1h-16l26.5 60.2-15 33.5h15.5l40.6-93.8-16.5.1zm-133.5 63.8h14.8l-.2-99.3h-14.8l.2 99.3z"/><g class="st3"><path class="st1" d="M2544.8 7036.8v-89.5h11.5l31.1 54.5h.5l31.1-54.5h11.5v89.5H2619v-53.1l.5-15h-.5l-28 49.1h-6.8l-28-49.1h-.5l.5 15v53.1h-11.4zM2699.1 7036.8h-11v-8.5h-.5c-1.8 2.9-4.4 5.4-8 7.4-3.6 2-7.4 3.1-11.4 3.1-7.7 0-13.5-2.3-17.4-7-4-4.7-5.9-10.9-5.9-18.8v-37.5h11.5v35.6c0 11.4 5 17.1 15.1 17.1 4.8 0 8.6-1.9 11.6-5.8 3-3.8 4.5-8.2 4.5-13.2v-33.8h11.5v61.4zm-22.9-73.5h-10l6.5-16h12.5l-9 16zM2735.2 7038.8c-6.8 0-12.5-1.7-16.9-5-4.5-3.3-7.7-7.5-9.8-12.5l10.2-4.2c3.2 7.7 8.8 11.5 16.6 11.5 3.6 0 6.5-.8 8.8-2.4 2.3-1.6 3.4-3.7 3.4-6.2 0-4-2.8-6.7-8.4-8.1l-12.4-3c-3.9-1-7.6-2.9-11.1-5.7-3.5-2.8-5.2-6.6-5.2-11.3 0-5.4 2.4-9.8 7.2-13.2 4.8-3.4 10.5-5.1 17.1-5.1 5.4 0 10.2 1.2 14.5 3.7 4.2 2.5 7.3 6 9.1 10.6l-10 4.1c-2.2-5.4-6.9-8.1-14-8.1-3.4 0-6.3.7-8.6 2.1-2.3 1.4-3.5 3.3-3.5 5.8 0 3.5 2.7 5.9 8.1 7.1l12.1 2.9c5.8 1.3 10 3.6 12.8 6.9s4.1 6.9 4.1 11c0 5.5-2.2 10.1-6.8 13.8s-10.2 5.3-17.3 5.3zM2781.2 6960.2c-1.6 1.6-3.5 2.4-5.8 2.4s-4.2-.8-5.8-2.4c-1.6-1.6-2.4-3.5-2.4-5.8s.8-4.2 2.4-5.8c1.6-1.6 3.5-2.4 5.8-2.4s4.2.8 5.8 2.4c1.6 1.6 2.4 3.5 2.4 5.8s-.8 4.2-2.4 5.8zm0 76.6h-11.5v-61.2h11.5v61.2zM2823.6 7038.8c-9.2 0-16.7-3.1-22.6-9.3-5.9-6.2-8.9-14-8.9-23.3s3-17.1 8.9-23.3c5.9-6.2 13.5-9.3 22.6-9.3 6.8 0 12.5 1.7 17 5s7.8 7.5 9.9 12.6l-10.5 4.4c-3.2-7.7-8.9-11.5-17.1-11.5-5.1 0-9.6 2.1-13.4 6.2-3.9 4.2-5.8 9.5-5.8 15.9s1.9 11.7 5.8 15.9c3.9 4.2 8.4 6.2 13.4 6.2 8.6 0 14.5-3.8 17.8-11.5l10.2 4.4c-2.1 5-5.4 9.2-10.1 12.6s-10.4 5-17.2 5zM2879.6 7038.8c-6.5 0-11.9-1.9-16.3-5.6s-6.6-8.7-6.6-14.9c0-6.7 2.6-11.9 7.8-15.7 5.2-3.8 11.5-5.7 19.1-5.7 6.8 0 12.3 1.2 16.6 3.8v-1.8c0-4.5-1.5-8.1-4.6-10.8-3.1-2.7-6.9-4.1-11.4-4.1-3.3 0-6.4.8-9.1 2.4-2.7 1.6-4.6 3.8-5.6 6.5l-10.5-4.5c1.4-3.7 4.2-7.1 8.4-10.2 4.2-3.1 9.7-4.7 16.5-4.7 7.8 0 14.3 2.3 19.5 6.9 5.2 4.6 7.8 11 7.8 19.4v37h-11v-8.5h-.5c-4.6 7-11.3 10.5-20.1 10.5zm1.8-10.5c4.8 0 9.1-1.8 12.9-5.3 3.9-3.5 5.8-7.7 5.8-12.6-3.2-2.7-8.1-4-14.6-4-5.6 0-9.8 1.2-12.6 3.6-2.8 2.4-4.2 5.2-4.2 8.5 0 3 1.3 5.4 3.9 7.1 2.5 1.8 5.5 2.7 8.8 2.7z"/></g></svg>
